<mxfile host="app.diagrams.net" agent="Mozilla/5.0 (iPhone; CPU iPhone OS 17_2_1 like Mac OS X) AppleWebKit/605.1.15 (KHTML, like Gecko) Version/17.2 Mobile/15E148 Safari/604.1" version="24.7.5">
  <diagram id="uxK4-Yki4DrVbVwzbOzG" name="Page-1">
    <mxGraphModel dx="2071" dy="563" grid="1" gridSize="10" guides="1" tooltips="1" connect="1" arrows="1" fold="1" page="1" pageScale="1" pageWidth="1100" pageHeight="850" math="0" shadow="0">
      <root>
        <mxCell id="0" />
        <mxCell id="1" parent="0" />
        <mxCell id="2" value="&lt;div style=&quot;line-height: 22px;&quot;&gt;&lt;span style=&quot;background-color: rgb(251, 251, 251);&quot;&gt;Navigation Bar&lt;/span&gt;&lt;/div&gt;" style="shape=umlLifeline;perimeter=lifelinePerimeter;whiteSpace=wrap;html=1;container=1;collapsible=0;recursiveResize=0;outlineConnect=0;rounded=1;shadow=0;comic=0;labelBackgroundColor=none;strokeWidth=1;fontFamily=Verdana;fontSize=12;align=center;" parent="1" vertex="1">
          <mxGeometry x="280" y="80" width="110" height="1600" as="geometry" />
        </mxCell>
        <mxCell id="L2fa7iT7cZ7oDMcu6JGY-260" value="" style="html=1;points=[];perimeter=orthogonalPerimeter;rounded=0;shadow=0;comic=0;labelBackgroundColor=none;strokeWidth=1;fontFamily=Verdana;fontSize=12;align=center;" vertex="1" parent="2">
          <mxGeometry x="50" y="98" width="10" height="1082" as="geometry" />
        </mxCell>
        <mxCell id="10" value="&lt;div&gt;Controller&lt;br&gt;&lt;/div&gt;" style="shape=umlLifeline;perimeter=lifelinePerimeter;whiteSpace=wrap;html=1;container=1;collapsible=0;recursiveResize=0;outlineConnect=0;rounded=1;shadow=0;comic=0;labelBackgroundColor=none;strokeWidth=1;fontFamily=Verdana;fontSize=12;align=center;" parent="1" vertex="1">
          <mxGeometry x="931" y="80" width="100" height="1600" as="geometry" />
        </mxCell>
        <mxCell id="XzoOXswsR-Y3jGsb5p3l-259" value="" style="html=1;points=[];perimeter=orthogonalPerimeter;rounded=0;shadow=0;comic=0;labelBackgroundColor=none;strokeWidth=1;fontFamily=Verdana;fontSize=12;align=center;" vertex="1" parent="10">
          <mxGeometry x="45" y="81" width="10" height="1082" as="geometry" />
        </mxCell>
        <mxCell id="12" value="Quote Table" style="shape=umlLifeline;perimeter=lifelinePerimeter;whiteSpace=wrap;html=1;container=1;collapsible=0;recursiveResize=0;outlineConnect=0;rounded=1;shadow=0;comic=0;labelBackgroundColor=none;strokeWidth=1;fontFamily=Verdana;fontSize=12;align=center;" parent="1" vertex="1">
          <mxGeometry x="1071" y="80" width="100" height="1600" as="geometry" />
        </mxCell>
        <mxCell id="XzoOXswsR-Y3jGsb5p3l-264" value="" style="html=1;points=[];perimeter=orthogonalPerimeter;rounded=0;shadow=0;comic=0;labelBackgroundColor=none;strokeWidth=1;fontFamily=Verdana;fontSize=12;align=center;" vertex="1" parent="12">
          <mxGeometry x="45" y="94" width="10" height="1082" as="geometry" />
        </mxCell>
        <mxCell id="17" style="rounded=0;orthogonalLoop=1;jettySize=auto;html=1;exitX=0.5;exitY=1;exitDx=0;exitDy=0;dashed=1;shape=link;strokeWidth=1;strokeColor=none;" parent="1" source="18" edge="1">
          <mxGeometry relative="1" as="geometry">
            <mxPoint x="130" y="660" as="targetPoint" />
          </mxGeometry>
        </mxCell>
        <mxCell id="18" value="" style="shape=actor;whiteSpace=wrap;html=1;" parent="1" vertex="1">
          <mxGeometry x="130" y="80" width="40" height="60" as="geometry" />
        </mxCell>
        <mxCell id="19" value="&lt;div&gt;Customer&lt;/div&gt;" style="text;html=1;align=center;verticalAlign=middle;resizable=0;points=[];autosize=1;strokeColor=none;fillColor=none;" parent="1" vertex="1">
          <mxGeometry x="40" y="110" width="80" height="30" as="geometry" />
        </mxCell>
        <mxCell id="20" value="" style="endArrow=none;dashed=1;html=1;dashPattern=1 3;strokeWidth=2;rounded=0;entryX=0.5;entryY=1;entryDx=0;entryDy=0;" parent="1" source="22" target="18" edge="1">
          <mxGeometry width="50" height="50" relative="1" as="geometry">
            <mxPoint x="150" y="660" as="sourcePoint" />
            <mxPoint x="570" y="270" as="targetPoint" />
          </mxGeometry>
        </mxCell>
        <mxCell id="22" value="" style="html=1;points=[];perimeter=orthogonalPerimeter;rounded=0;shadow=0;comic=0;labelBackgroundColor=none;strokeWidth=1;fontFamily=Verdana;fontSize=12;align=center;" parent="1" vertex="1">
          <mxGeometry x="142.5" y="170" width="15" height="1510" as="geometry" />
        </mxCell>
        <mxCell id="90" value="Display create Write off reasons screen" style="text;whiteSpace=wrap;html=1;" parent="1" vertex="1">
          <mxGeometry x="-150" y="65" width="120" height="40" as="geometry" />
        </mxCell>
        <mxCell id="254" value="Customer Table" style="shape=umlLifeline;perimeter=lifelinePerimeter;whiteSpace=wrap;html=1;container=1;collapsible=0;recursiveResize=0;outlineConnect=0;rounded=1;shadow=0;comic=0;labelBackgroundColor=none;strokeWidth=1;fontFamily=Verdana;fontSize=12;align=center;" parent="1" vertex="1">
          <mxGeometry x="1256.46" y="80" width="100" height="1600" as="geometry" />
        </mxCell>
        <mxCell id="XzoOXswsR-Y3jGsb5p3l-273" value="" style="html=1;points=[];perimeter=orthogonalPerimeter;rounded=0;shadow=0;comic=0;labelBackgroundColor=none;strokeWidth=1;fontFamily=Verdana;fontSize=12;align=center;" vertex="1" parent="254">
          <mxGeometry x="45" y="98" width="10" height="1082" as="geometry" />
        </mxCell>
        <mxCell id="LMX5ZwcizlQk9hmOMZiy-269" value="Service Type Table" style="shape=umlLifeline;perimeter=lifelinePerimeter;whiteSpace=wrap;html=1;container=1;collapsible=0;recursiveResize=0;outlineConnect=0;rounded=1;shadow=0;comic=0;labelBackgroundColor=none;strokeWidth=1;fontFamily=Verdana;fontSize=12;align=center;" parent="1" vertex="1">
          <mxGeometry x="1411" y="80" width="100" height="1600" as="geometry" />
        </mxCell>
        <mxCell id="XzoOXswsR-Y3jGsb5p3l-274" value="" style="html=1;points=[];perimeter=orthogonalPerimeter;rounded=0;shadow=0;comic=0;labelBackgroundColor=none;strokeWidth=1;fontFamily=Verdana;fontSize=12;align=center;" vertex="1" parent="LMX5ZwcizlQk9hmOMZiy-269">
          <mxGeometry x="45" y="98" width="10" height="1082" as="geometry" />
        </mxCell>
        <mxCell id="XzoOXswsR-Y3jGsb5p3l-314" value="Insert audit trail record" style="html=1;verticalAlign=bottom;endArrow=block;labelBackgroundColor=none;fontFamily=Verdana;fontSize=12;edgeStyle=elbowEdgeStyle;elbow=vertical;" edge="1" parent="LMX5ZwcizlQk9hmOMZiy-269">
          <mxGeometry x="0.0031" relative="1" as="geometry">
            <mxPoint x="-460" y="1470" as="sourcePoint" />
            <mxPoint x="834" y="1480" as="targetPoint" />
            <mxPoint as="offset" />
            <Array as="points" />
          </mxGeometry>
        </mxCell>
        <mxCell id="LMX5ZwcizlQk9hmOMZiy-271" value="Machine Type Table" style="shape=umlLifeline;perimeter=lifelinePerimeter;whiteSpace=wrap;html=1;container=1;collapsible=0;recursiveResize=0;outlineConnect=0;rounded=1;shadow=0;comic=0;labelBackgroundColor=none;strokeWidth=1;fontFamily=Verdana;fontSize=12;align=center;" parent="1" vertex="1">
          <mxGeometry x="1571" y="80" width="100" height="1600" as="geometry" />
        </mxCell>
        <mxCell id="XzoOXswsR-Y3jGsb5p3l-275" value="" style="html=1;points=[];perimeter=orthogonalPerimeter;rounded=0;shadow=0;comic=0;labelBackgroundColor=none;strokeWidth=1;fontFamily=Verdana;fontSize=12;align=center;" vertex="1" parent="LMX5ZwcizlQk9hmOMZiy-271">
          <mxGeometry x="45" y="94" width="10" height="1082" as="geometry" />
        </mxCell>
        <mxCell id="LMX5ZwcizlQk9hmOMZiy-273" value="Employee Table" style="shape=umlLifeline;perimeter=lifelinePerimeter;whiteSpace=wrap;html=1;container=1;collapsible=0;recursiveResize=0;outlineConnect=0;rounded=1;shadow=0;comic=0;labelBackgroundColor=none;strokeWidth=1;fontFamily=Verdana;fontSize=12;align=center;" parent="1" vertex="1">
          <mxGeometry x="1731" y="80" width="100" height="1600" as="geometry" />
        </mxCell>
        <mxCell id="XzoOXswsR-Y3jGsb5p3l-276" value="" style="html=1;points=[];perimeter=orthogonalPerimeter;rounded=0;shadow=0;comic=0;labelBackgroundColor=none;strokeWidth=1;fontFamily=Verdana;fontSize=12;align=center;" vertex="1" parent="LMX5ZwcizlQk9hmOMZiy-273">
          <mxGeometry x="45" y="98" width="10" height="1082" as="geometry" />
        </mxCell>
        <mxCell id="LMX5ZwcizlQk9hmOMZiy-275" value="Quote Status Table" style="shape=umlLifeline;perimeter=lifelinePerimeter;whiteSpace=wrap;html=1;container=1;collapsible=0;recursiveResize=0;outlineConnect=0;rounded=1;shadow=0;comic=0;labelBackgroundColor=none;strokeWidth=1;fontFamily=Verdana;fontSize=12;align=center;" parent="1" vertex="1">
          <mxGeometry x="1891" y="80" width="100" height="1600" as="geometry" />
        </mxCell>
        <mxCell id="XzoOXswsR-Y3jGsb5p3l-277" value="" style="html=1;points=[];perimeter=orthogonalPerimeter;rounded=0;shadow=0;comic=0;labelBackgroundColor=none;strokeWidth=1;fontFamily=Verdana;fontSize=12;align=center;" vertex="1" parent="LMX5ZwcizlQk9hmOMZiy-275">
          <mxGeometry x="45" y="98" width="10" height="1082" as="geometry" />
        </mxCell>
        <mxCell id="LMX5ZwcizlQk9hmOMZiy-277" value="Quote Type Table" style="shape=umlLifeline;perimeter=lifelinePerimeter;whiteSpace=wrap;html=1;container=1;collapsible=0;recursiveResize=0;outlineConnect=0;rounded=1;shadow=0;comic=0;labelBackgroundColor=none;strokeWidth=1;fontFamily=Verdana;fontSize=12;align=center;" parent="1" vertex="1">
          <mxGeometry x="2041" y="80" width="100" height="1600" as="geometry" />
        </mxCell>
        <mxCell id="XzoOXswsR-Y3jGsb5p3l-278" value="" style="html=1;points=[];perimeter=orthogonalPerimeter;rounded=0;shadow=0;comic=0;labelBackgroundColor=none;strokeWidth=1;fontFamily=Verdana;fontSize=12;align=center;" vertex="1" parent="LMX5ZwcizlQk9hmOMZiy-277">
          <mxGeometry x="45" y="98" width="10" height="1082" as="geometry" />
        </mxCell>
        <mxCell id="LMX5ZwcizlQk9hmOMZiy-279" value="Audit Trail\nTable" style="shape=umlLifeline;perimeter=lifelinePerimeter;whiteSpace=wrap;html=1;container=1;collapsible=0;recursiveResize=0;outlineConnect=0;rounded=1;shadow=0;comic=0;labelBackgroundColor=none;strokeWidth=1;fontFamily=Verdana;fontSize=12;align=center;" parent="1" vertex="1">
          <mxGeometry x="2181" y="80" width="100" height="1610" as="geometry" />
        </mxCell>
        <mxCell id="15" value="Click &quot;Quotes&quot; tab" style="html=1;verticalAlign=bottom;endArrow=block;entryX=0;entryY=0;labelBackgroundColor=none;fontFamily=Verdana;fontSize=12;edgeStyle=elbowEdgeStyle;elbow=horizontal;exitX=0.933;exitY=0.007;exitDx=0;exitDy=0;exitPerimeter=0;entryDx=0;entryDy=0;entryPerimeter=0;" parent="1" edge="1" target="L2fa7iT7cZ7oDMcu6JGY-260" source="22">
          <mxGeometry x="-0.1429" y="10" relative="1" as="geometry">
            <mxPoint x="170" y="180" as="sourcePoint" />
            <mxPoint x="345" y="180.00000000000318" as="targetPoint" />
            <mxPoint as="offset" />
          </mxGeometry>
        </mxCell>
        <mxCell id="L2fa7iT7cZ7oDMcu6JGY-258" value="System" style="shape=umlLifeline;perimeter=lifelinePerimeter;whiteSpace=wrap;html=1;container=1;collapsible=0;recursiveResize=0;outlineConnect=0;rounded=1;shadow=0;comic=0;labelBackgroundColor=none;strokeWidth=1;fontFamily=Verdana;fontSize=12;align=center;" vertex="1" parent="1">
          <mxGeometry x="801" y="79" width="100" height="1601" as="geometry" />
        </mxCell>
        <mxCell id="XzoOXswsR-Y3jGsb5p3l-258" value="" style="html=1;points=[];perimeter=orthogonalPerimeter;rounded=0;shadow=0;comic=0;labelBackgroundColor=none;strokeWidth=1;fontFamily=Verdana;fontSize=12;align=center;" vertex="1" parent="L2fa7iT7cZ7oDMcu6JGY-258">
          <mxGeometry x="45" y="82" width="10" height="1082" as="geometry" />
        </mxCell>
        <mxCell id="L2fa7iT7cZ7oDMcu6JGY-265" value="" style="endArrow=classic;html=1;rounded=0;fontSize=12;startSize=8;endSize=8;curved=1;" edge="1" parent="1" target="L2fa7iT7cZ7oDMcu6JGY-268">
          <mxGeometry width="50" height="50" relative="1" as="geometry">
            <mxPoint x="850" y="268" as="sourcePoint" />
            <mxPoint x="452.8333333333335" y="268" as="targetPoint" />
            <Array as="points">
              <mxPoint x="800" y="268" />
            </Array>
          </mxGeometry>
        </mxCell>
        <mxCell id="L2fa7iT7cZ7oDMcu6JGY-266" value="Display &quot;View Customer Quotes&quot; screen" style="edgeLabel;html=1;align=center;verticalAlign=middle;resizable=0;points=[];fontSize=12;" vertex="1" connectable="0" parent="L2fa7iT7cZ7oDMcu6JGY-265">
          <mxGeometry x="0.2505" y="-1" relative="1" as="geometry">
            <mxPoint x="8" y="-17" as="offset" />
          </mxGeometry>
        </mxCell>
        <mxCell id="L2fa7iT7cZ7oDMcu6JGY-268" value="&lt;div&gt;View Customer Quotes\nScreen&lt;br&gt;&lt;/div&gt;" style="shape=umlLifeline;perimeter=lifelinePerimeter;whiteSpace=wrap;html=1;container=1;collapsible=0;recursiveResize=0;outlineConnect=0;rounded=1;shadow=0;comic=0;labelBackgroundColor=none;strokeWidth=1;fontFamily=Verdana;fontSize=12;align=center;" vertex="1" parent="1">
          <mxGeometry x="470" y="80" width="100" height="1600" as="geometry" />
        </mxCell>
        <mxCell id="XzoOXswsR-Y3jGsb5p3l-257" value="" style="html=1;points=[];perimeter=orthogonalPerimeter;rounded=0;shadow=0;comic=0;labelBackgroundColor=none;strokeWidth=1;fontFamily=Verdana;fontSize=12;align=center;" vertex="1" parent="L2fa7iT7cZ7oDMcu6JGY-268">
          <mxGeometry x="45" y="81" width="10" height="1429" as="geometry" />
        </mxCell>
        <mxCell id="XzoOXswsR-Y3jGsb5p3l-255" value="alt" style="shape=umlFrame;whiteSpace=wrap;html=1;pointerEvents=0;" vertex="1" parent="1">
          <mxGeometry x="370" y="329" width="1790" height="371" as="geometry" />
        </mxCell>
        <mxCell id="L2fa7iT7cZ7oDMcu6JGY-259" value="Redirect to &quot;View Customer Quotes&quot; screen" style="html=1;verticalAlign=bottom;endArrow=block;labelBackgroundColor=none;fontFamily=Verdana;fontSize=12;edgeStyle=elbowEdgeStyle;elbow=horizontal;entryX=0.096;entryY=0;entryDx=0;entryDy=0;entryPerimeter=0;" edge="1" parent="1">
          <mxGeometry x="0.0035" y="14" relative="1" as="geometry">
            <mxPoint x="343" y="214" as="sourcePoint" />
            <mxPoint x="846.9600000000005" y="214" as="targetPoint" />
            <mxPoint as="offset" />
          </mxGeometry>
        </mxCell>
        <mxCell id="XzoOXswsR-Y3jGsb5p3l-261" value="Send request to QuoteServiceController" style="html=1;verticalAlign=bottom;endArrow=block;labelBackgroundColor=none;fontFamily=Verdana;fontSize=12;edgeStyle=elbowEdgeStyle;elbow=horizontal;" edge="1" parent="1">
          <mxGeometry x="0.0031" relative="1" as="geometry">
            <mxPoint x="527.04" y="360" as="sourcePoint" />
            <mxPoint x="840" y="360" as="targetPoint" />
            <mxPoint as="offset" />
          </mxGeometry>
        </mxCell>
        <mxCell id="XzoOXswsR-Y3jGsb5p3l-262" value="HTTP GET request" style="html=1;verticalAlign=bottom;endArrow=block;labelBackgroundColor=none;fontFamily=Verdana;fontSize=12;edgeStyle=elbowEdgeStyle;elbow=horizontal;" edge="1" parent="1">
          <mxGeometry x="0.0031" relative="1" as="geometry">
            <mxPoint x="858.04" y="380" as="sourcePoint" />
            <mxPoint x="980" y="380" as="targetPoint" />
            <mxPoint as="offset" />
          </mxGeometry>
        </mxCell>
        <mxCell id="XzoOXswsR-Y3jGsb5p3l-263" value="LINQ Query to&amp;nbsp;&lt;div&gt;retrieve quotes&lt;/div&gt;" style="html=1;verticalAlign=bottom;endArrow=block;labelBackgroundColor=none;fontFamily=Verdana;fontSize=12;edgeStyle=elbowEdgeStyle;elbow=horizontal;" edge="1" parent="1">
          <mxGeometry x="0.0031" relative="1" as="geometry">
            <mxPoint x="990" y="390" as="sourcePoint" />
            <mxPoint x="1111.96" y="390" as="targetPoint" />
            <mxPoint as="offset" />
          </mxGeometry>
        </mxCell>
        <mxCell id="XzoOXswsR-Y3jGsb5p3l-265" value="Retrieve customer data" style="html=1;verticalAlign=bottom;endArrow=block;labelBackgroundColor=none;fontFamily=Verdana;fontSize=12;edgeStyle=elbowEdgeStyle;elbow=horizontal;exitX=1.083;exitY=0.245;exitDx=0;exitDy=0;exitPerimeter=0;" edge="1" parent="1">
          <mxGeometry x="0.0031" relative="1" as="geometry">
            <mxPoint x="1126.83" y="416.0899999999999" as="sourcePoint" />
            <mxPoint x="1305.96" y="417" as="targetPoint" />
            <mxPoint as="offset" />
            <Array as="points">
              <mxPoint x="1200" y="417" />
            </Array>
          </mxGeometry>
        </mxCell>
        <mxCell id="XzoOXswsR-Y3jGsb5p3l-267" value="" style="html=1;verticalAlign=bottom;endArrow=block;labelBackgroundColor=none;fontFamily=Verdana;fontSize=12;edgeStyle=elbowEdgeStyle;elbow=horizontal;exitX=1.4;exitY=0.256;exitDx=0;exitDy=0;exitPerimeter=0;" edge="1" parent="1" source="XzoOXswsR-Y3jGsb5p3l-264" target="LMX5ZwcizlQk9hmOMZiy-269">
          <mxGeometry x="0.029" y="11" relative="1" as="geometry">
            <mxPoint x="1130" y="449.9999999999999" as="sourcePoint" />
            <mxPoint x="1309.13" y="450.90999999999997" as="targetPoint" />
            <mxPoint as="offset" />
            <Array as="points">
              <mxPoint x="1203.17" y="450.90999999999997" />
            </Array>
          </mxGeometry>
        </mxCell>
        <mxCell id="XzoOXswsR-Y3jGsb5p3l-272" value="Retrieve service type data" style="edgeLabel;html=1;align=center;verticalAlign=middle;resizable=0;points=[];fontSize=12;" vertex="1" connectable="0" parent="XzoOXswsR-Y3jGsb5p3l-267">
          <mxGeometry x="0.0205" y="14" relative="1" as="geometry">
            <mxPoint x="-89" y="3" as="offset" />
          </mxGeometry>
        </mxCell>
        <mxCell id="XzoOXswsR-Y3jGsb5p3l-268" value="Retrieve machine type data" style="html=1;verticalAlign=bottom;endArrow=block;labelBackgroundColor=none;fontFamily=Verdana;fontSize=12;edgeStyle=elbowEdgeStyle;elbow=horizontal;exitX=0.773;exitY=0.31;exitDx=0;exitDy=0;exitPerimeter=0;" edge="1" parent="1">
          <mxGeometry x="0.0031" relative="1" as="geometry">
            <mxPoint x="1123.73" y="493.4200000000001" as="sourcePoint" />
            <mxPoint x="1620.5" y="493.90999999999985" as="targetPoint" />
            <mxPoint as="offset" />
            <Array as="points">
              <mxPoint x="1203.17" y="493.90999999999997" />
            </Array>
          </mxGeometry>
        </mxCell>
        <mxCell id="XzoOXswsR-Y3jGsb5p3l-269" value="Retrieve employee data" style="html=1;verticalAlign=bottom;endArrow=block;labelBackgroundColor=none;fontFamily=Verdana;fontSize=12;edgeStyle=elbowEdgeStyle;elbow=horizontal;exitX=0.4;exitY=0.329;exitDx=0;exitDy=0;exitPerimeter=0;" edge="1" parent="1" source="XzoOXswsR-Y3jGsb5p3l-264" target="LMX5ZwcizlQk9hmOMZiy-273">
          <mxGeometry x="0.0031" relative="1" as="geometry">
            <mxPoint x="1133.73" y="530.0000000000001" as="sourcePoint" />
            <mxPoint x="1630.5" y="530.4899999999999" as="targetPoint" />
            <mxPoint as="offset" />
            <Array as="points">
              <mxPoint x="1213.17" y="530.49" />
            </Array>
          </mxGeometry>
        </mxCell>
        <mxCell id="XzoOXswsR-Y3jGsb5p3l-270" value="Retrieve quote status data" style="html=1;verticalAlign=bottom;endArrow=block;labelBackgroundColor=none;fontFamily=Verdana;fontSize=12;edgeStyle=elbowEdgeStyle;elbow=horizontal;" edge="1" parent="1" target="LMX5ZwcizlQk9hmOMZiy-275">
          <mxGeometry x="0.0031" relative="1" as="geometry">
            <mxPoint x="1130" y="559" as="sourcePoint" />
            <mxPoint x="1791.5" y="559" as="targetPoint" />
            <mxPoint as="offset" />
            <Array as="points">
              <mxPoint x="1223.67" y="559.49" />
            </Array>
          </mxGeometry>
        </mxCell>
        <mxCell id="XzoOXswsR-Y3jGsb5p3l-271" value="Retrieve quote type data" style="html=1;verticalAlign=bottom;endArrow=block;labelBackgroundColor=none;fontFamily=Verdana;fontSize=12;edgeStyle=elbowEdgeStyle;elbow=horizontal;" edge="1" parent="1" target="LMX5ZwcizlQk9hmOMZiy-277">
          <mxGeometry x="0.0031" relative="1" as="geometry">
            <mxPoint x="1120" y="600" as="sourcePoint" />
            <mxPoint x="1931" y="600" as="targetPoint" />
            <mxPoint as="offset" />
            <Array as="points">
              <mxPoint x="1213.67" y="600.49" />
            </Array>
          </mxGeometry>
        </mxCell>
        <mxCell id="XzoOXswsR-Y3jGsb5p3l-279" value="Return quotes data" style="html=1;verticalAlign=bottom;endArrow=block;labelBackgroundColor=none;fontFamily=Verdana;fontSize=12;edgeStyle=elbowEdgeStyle;elbow=vertical;" edge="1" parent="1">
          <mxGeometry y="-2" relative="1" as="geometry">
            <mxPoint x="1120.5" y="622" as="sourcePoint" />
            <mxPoint x="980" y="622" as="targetPoint" />
            <mxPoint as="offset" />
          </mxGeometry>
        </mxCell>
        <mxCell id="XzoOXswsR-Y3jGsb5p3l-280" value="Return quotes data" style="html=1;verticalAlign=bottom;endArrow=block;labelBackgroundColor=none;fontFamily=Verdana;fontSize=12;edgeStyle=elbowEdgeStyle;elbow=vertical;" edge="1" parent="1">
          <mxGeometry y="-2" relative="1" as="geometry">
            <mxPoint x="980.5" y="650" as="sourcePoint" />
            <mxPoint x="850" y="650" as="targetPoint" />
            <mxPoint as="offset" />
          </mxGeometry>
        </mxCell>
        <mxCell id="XzoOXswsR-Y3jGsb5p3l-281" value="Display quotes table" style="html=1;verticalAlign=bottom;endArrow=block;labelBackgroundColor=none;fontFamily=Verdana;fontSize=12;edgeStyle=elbowEdgeStyle;elbow=vertical;entryX=0.857;entryY=0.475;entryDx=0;entryDy=0;entryPerimeter=0;" edge="1" parent="1" source="XzoOXswsR-Y3jGsb5p3l-258" target="XzoOXswsR-Y3jGsb5p3l-257">
          <mxGeometry y="-2" relative="1" as="geometry">
            <mxPoint x="840.5" y="670" as="sourcePoint" />
            <mxPoint x="710" y="670" as="targetPoint" />
            <mxPoint as="offset" />
          </mxGeometry>
        </mxCell>
        <mxCell id="XzoOXswsR-Y3jGsb5p3l-282" value="&lt;font style=&quot;font-size: 10px;&quot;&gt;Qoute Exists&lt;/font&gt;" style="text;html=1;align=center;verticalAlign=middle;resizable=0;points=[];autosize=1;strokeColor=none;fillColor=none;fontSize=16;" vertex="1" parent="1">
          <mxGeometry x="430" y="329" width="80" height="30" as="geometry" />
        </mxCell>
        <mxCell id="XzoOXswsR-Y3jGsb5p3l-283" value="alt" style="shape=umlFrame;whiteSpace=wrap;html=1;pointerEvents=0;" vertex="1" parent="1">
          <mxGeometry x="370" y="720" width="1790" height="60" as="geometry" />
        </mxCell>
        <mxCell id="XzoOXswsR-Y3jGsb5p3l-284" value="&lt;font style=&quot;font-size: 10px;&quot;&gt;No qoutes found&lt;/font&gt;" style="text;html=1;align=center;verticalAlign=middle;resizable=0;points=[];autosize=1;strokeColor=none;fillColor=none;fontSize=16;" vertex="1" parent="1">
          <mxGeometry x="420" y="720" width="100" height="30" as="geometry" />
        </mxCell>
        <mxCell id="XzoOXswsR-Y3jGsb5p3l-285" value="Display &quot;No items were found&quot;" style="html=1;verticalAlign=bottom;endArrow=block;labelBackgroundColor=none;fontFamily=Verdana;fontSize=12;edgeStyle=elbowEdgeStyle;elbow=horizontal;" edge="1" parent="1">
          <mxGeometry x="0.0031" relative="1" as="geometry">
            <mxPoint x="530" y="754.5" as="sourcePoint" />
            <mxPoint x="842.96" y="754.5" as="targetPoint" />
            <mxPoint as="offset" />
          </mxGeometry>
        </mxCell>
        <mxCell id="XzoOXswsR-Y3jGsb5p3l-286" value="Return quotes data" style="html=1;verticalAlign=bottom;endArrow=block;labelBackgroundColor=none;fontFamily=Verdana;fontSize=12;edgeStyle=elbowEdgeStyle;elbow=vertical;" edge="1" parent="1">
          <mxGeometry y="-2" relative="1" as="geometry">
            <mxPoint x="1120.5" y="700" as="sourcePoint" />
            <mxPoint x="980" y="700" as="targetPoint" />
            <mxPoint as="offset" />
          </mxGeometry>
        </mxCell>
        <mxCell id="XzoOXswsR-Y3jGsb5p3l-287" value="Return quotes data" style="html=1;verticalAlign=bottom;endArrow=block;labelBackgroundColor=none;fontFamily=Verdana;fontSize=12;edgeStyle=elbowEdgeStyle;elbow=vertical;" edge="1" parent="1">
          <mxGeometry y="-2" relative="1" as="geometry">
            <mxPoint x="980.5" y="728" as="sourcePoint" />
            <mxPoint x="850" y="728" as="targetPoint" />
            <mxPoint as="offset" />
          </mxGeometry>
        </mxCell>
        <mxCell id="XzoOXswsR-Y3jGsb5p3l-289" value="alt" style="shape=umlFrame;whiteSpace=wrap;html=1;pointerEvents=0;" vertex="1" parent="1">
          <mxGeometry x="370" y="798" width="1790" height="60" as="geometry" />
        </mxCell>
        <mxCell id="XzoOXswsR-Y3jGsb5p3l-290" value="&lt;font style=&quot;font-size: 10px;&quot;&gt;Error&amp;nbsp;&lt;/font&gt;&lt;div&gt;&lt;font style=&quot;font-size: 10px;&quot;&gt;retrieving quotes&lt;/font&gt;&lt;/div&gt;" style="text;html=1;align=center;verticalAlign=middle;resizable=0;points=[];autosize=1;strokeColor=none;fillColor=none;fontSize=16;" vertex="1" parent="1">
          <mxGeometry x="420" y="788" width="100" height="50" as="geometry" />
        </mxCell>
        <mxCell id="XzoOXswsR-Y3jGsb5p3l-291" value="Display &quot;There is an error with the system,&amp;nbsp;&lt;div&gt;please try again later&quot;&lt;br&gt;&lt;/div&gt;" style="html=1;verticalAlign=bottom;endArrow=block;labelBackgroundColor=none;fontFamily=Verdana;fontSize=12;edgeStyle=elbowEdgeStyle;elbow=horizontal;" edge="1" parent="1">
          <mxGeometry x="0.0031" relative="1" as="geometry">
            <mxPoint x="530" y="837.5" as="sourcePoint" />
            <mxPoint x="842.96" y="837.5" as="targetPoint" />
            <mxPoint as="offset" />
          </mxGeometry>
        </mxCell>
        <mxCell id="XzoOXswsR-Y3jGsb5p3l-292" value="alt" style="shape=umlFrame;whiteSpace=wrap;html=1;pointerEvents=0;" vertex="1" parent="1">
          <mxGeometry x="80" y="890" width="2080" height="580" as="geometry" />
        </mxCell>
        <mxCell id="XzoOXswsR-Y3jGsb5p3l-293" value="&lt;font style=&quot;font-size: 10px;&quot;&gt;Customer&amp;nbsp;&lt;/font&gt;&lt;div&gt;&lt;font style=&quot;font-size: 10px;&quot;&gt;searches quotes&lt;/font&gt;&lt;/div&gt;" style="text;html=1;align=center;verticalAlign=middle;resizable=0;points=[];autosize=1;strokeColor=none;fillColor=none;fontSize=16;" vertex="1" parent="1">
          <mxGeometry x="150" y="880" width="100" height="50" as="geometry" />
        </mxCell>
        <mxCell id="XzoOXswsR-Y3jGsb5p3l-294" value="Enters quote type or employee name" style="html=1;verticalAlign=bottom;endArrow=block;labelBackgroundColor=none;fontFamily=Verdana;fontSize=12;edgeStyle=elbowEdgeStyle;elbow=horizontal;exitX=0.98;exitY=0.741;exitDx=0;exitDy=0;exitPerimeter=0;entryX=0.298;entryY=0.721;entryDx=0;entryDy=0;entryPerimeter=0;" edge="1" parent="1" target="L2fa7iT7cZ7oDMcu6JGY-260">
          <mxGeometry x="0.0031" relative="1" as="geometry">
            <mxPoint x="157.49999999999983" y="960" as="sourcePoint" />
            <mxPoint x="510.30000000000007" y="962.31" as="targetPoint" />
            <mxPoint as="offset" />
            <Array as="points" />
          </mxGeometry>
        </mxCell>
        <mxCell id="XzoOXswsR-Y3jGsb5p3l-295" value="Send search request" style="html=1;verticalAlign=bottom;endArrow=block;labelBackgroundColor=none;fontFamily=Verdana;fontSize=12;edgeStyle=elbowEdgeStyle;elbow=horizontal;exitX=0.98;exitY=0.741;exitDx=0;exitDy=0;exitPerimeter=0;" edge="1" parent="1">
          <mxGeometry x="0.0031" relative="1" as="geometry">
            <mxPoint x="519.9999999999998" y="1000" as="sourcePoint" />
            <mxPoint x="850" y="1000" as="targetPoint" />
            <mxPoint as="offset" />
            <Array as="points">
              <mxPoint x="762.8" y="972.31" />
            </Array>
          </mxGeometry>
        </mxCell>
        <mxCell id="XzoOXswsR-Y3jGsb5p3l-297" value="HTTP GET request" style="html=1;verticalAlign=bottom;endArrow=block;labelBackgroundColor=none;fontFamily=Verdana;fontSize=12;edgeStyle=elbowEdgeStyle;elbow=horizontal;entryX=0.111;entryY=0.821;entryDx=0;entryDy=0;entryPerimeter=0;" edge="1" parent="1" target="XzoOXswsR-Y3jGsb5p3l-259">
          <mxGeometry x="0.0031" relative="1" as="geometry">
            <mxPoint x="860" y="1049" as="sourcePoint" />
            <mxPoint x="931" y="1050" as="targetPoint" />
            <mxPoint as="offset" />
            <Array as="points" />
          </mxGeometry>
        </mxCell>
        <mxCell id="XzoOXswsR-Y3jGsb5p3l-298" value="LINQ Query to&amp;nbsp;&lt;div&gt;retrieve quotes&lt;/div&gt;" style="html=1;verticalAlign=bottom;endArrow=block;labelBackgroundColor=none;fontFamily=Verdana;fontSize=12;edgeStyle=elbowEdgeStyle;elbow=horizontal;" edge="1" parent="1">
          <mxGeometry x="0.0031" relative="1" as="geometry">
            <mxPoint x="990" y="1070" as="sourcePoint" />
            <mxPoint x="1111.96" y="1070" as="targetPoint" />
            <mxPoint as="offset" />
          </mxGeometry>
        </mxCell>
        <mxCell id="XzoOXswsR-Y3jGsb5p3l-299" value="Retrieve customer data" style="html=1;verticalAlign=bottom;endArrow=block;labelBackgroundColor=none;fontFamily=Verdana;fontSize=12;edgeStyle=elbowEdgeStyle;elbow=horizontal;exitX=1.083;exitY=0.245;exitDx=0;exitDy=0;exitPerimeter=0;" edge="1" parent="1">
          <mxGeometry x="0.0031" relative="1" as="geometry">
            <mxPoint x="1126.83" y="1096.09" as="sourcePoint" />
            <mxPoint x="1305.96" y="1097" as="targetPoint" />
            <mxPoint as="offset" />
            <Array as="points">
              <mxPoint x="1200" y="1097" />
            </Array>
          </mxGeometry>
        </mxCell>
        <mxCell id="XzoOXswsR-Y3jGsb5p3l-300" value="" style="html=1;verticalAlign=bottom;endArrow=block;labelBackgroundColor=none;fontFamily=Verdana;fontSize=12;edgeStyle=elbowEdgeStyle;elbow=horizontal;exitX=1.4;exitY=0.256;exitDx=0;exitDy=0;exitPerimeter=0;" edge="1" parent="1">
          <mxGeometry x="0.029" y="11" relative="1" as="geometry">
            <mxPoint x="1130" y="1131" as="sourcePoint" />
            <mxPoint x="1461" y="1131" as="targetPoint" />
            <mxPoint as="offset" />
            <Array as="points">
              <mxPoint x="1203.17" y="1130.9099999999999" />
            </Array>
          </mxGeometry>
        </mxCell>
        <mxCell id="XzoOXswsR-Y3jGsb5p3l-301" value="Retrieve service type data" style="edgeLabel;html=1;align=center;verticalAlign=middle;resizable=0;points=[];fontSize=12;" vertex="1" connectable="0" parent="XzoOXswsR-Y3jGsb5p3l-300">
          <mxGeometry x="0.0205" y="14" relative="1" as="geometry">
            <mxPoint x="-89" y="3" as="offset" />
          </mxGeometry>
        </mxCell>
        <mxCell id="XzoOXswsR-Y3jGsb5p3l-302" value="Retrieve machine type data" style="html=1;verticalAlign=bottom;endArrow=block;labelBackgroundColor=none;fontFamily=Verdana;fontSize=12;edgeStyle=elbowEdgeStyle;elbow=horizontal;exitX=0.773;exitY=0.31;exitDx=0;exitDy=0;exitPerimeter=0;" edge="1" parent="1">
          <mxGeometry x="0.0031" relative="1" as="geometry">
            <mxPoint x="1123.73" y="1173.42" as="sourcePoint" />
            <mxPoint x="1620.5" y="1173.9099999999999" as="targetPoint" />
            <mxPoint as="offset" />
            <Array as="points">
              <mxPoint x="1203.17" y="1173.9099999999999" />
            </Array>
          </mxGeometry>
        </mxCell>
        <mxCell id="XzoOXswsR-Y3jGsb5p3l-303" value="Retrieve employee data" style="html=1;verticalAlign=bottom;endArrow=block;labelBackgroundColor=none;fontFamily=Verdana;fontSize=12;edgeStyle=elbowEdgeStyle;elbow=horizontal;exitX=0.4;exitY=0.329;exitDx=0;exitDy=0;exitPerimeter=0;" edge="1" parent="1">
          <mxGeometry x="0.0031" relative="1" as="geometry">
            <mxPoint x="1120" y="1210" as="sourcePoint" />
            <mxPoint x="1781" y="1210" as="targetPoint" />
            <mxPoint as="offset" />
            <Array as="points">
              <mxPoint x="1213.17" y="1210.49" />
            </Array>
          </mxGeometry>
        </mxCell>
        <mxCell id="XzoOXswsR-Y3jGsb5p3l-304" value="Retrieve quote status data" style="html=1;verticalAlign=bottom;endArrow=block;labelBackgroundColor=none;fontFamily=Verdana;fontSize=12;edgeStyle=elbowEdgeStyle;elbow=horizontal;" edge="1" parent="1">
          <mxGeometry x="0.0031" relative="1" as="geometry">
            <mxPoint x="1130" y="1239" as="sourcePoint" />
            <mxPoint x="1941" y="1239" as="targetPoint" />
            <mxPoint as="offset" />
            <Array as="points">
              <mxPoint x="1223.67" y="1239.49" />
            </Array>
          </mxGeometry>
        </mxCell>
        <mxCell id="XzoOXswsR-Y3jGsb5p3l-305" value="Retrieve quote type data" style="html=1;verticalAlign=bottom;endArrow=block;labelBackgroundColor=none;fontFamily=Verdana;fontSize=12;edgeStyle=elbowEdgeStyle;elbow=horizontal;" edge="1" parent="1">
          <mxGeometry x="0.0031" relative="1" as="geometry">
            <mxPoint x="1120" y="1280" as="sourcePoint" />
            <mxPoint x="2091" y="1280" as="targetPoint" />
            <mxPoint as="offset" />
            <Array as="points">
              <mxPoint x="1213.67" y="1280.49" />
            </Array>
          </mxGeometry>
        </mxCell>
        <mxCell id="XzoOXswsR-Y3jGsb5p3l-306" value="Return search results" style="html=1;verticalAlign=bottom;endArrow=block;labelBackgroundColor=none;fontFamily=Verdana;fontSize=12;edgeStyle=elbowEdgeStyle;elbow=vertical;" edge="1" parent="1">
          <mxGeometry y="-2" relative="1" as="geometry">
            <mxPoint x="1120.5" y="1310" as="sourcePoint" />
            <mxPoint x="980" y="1310" as="targetPoint" />
            <mxPoint as="offset" />
          </mxGeometry>
        </mxCell>
        <mxCell id="XzoOXswsR-Y3jGsb5p3l-307" value="Return search results" style="html=1;verticalAlign=bottom;endArrow=block;labelBackgroundColor=none;fontFamily=Verdana;fontSize=12;edgeStyle=elbowEdgeStyle;elbow=vertical;" edge="1" parent="1">
          <mxGeometry y="-2" relative="1" as="geometry">
            <mxPoint x="980" y="1330" as="sourcePoint" />
            <mxPoint x="850" y="1330" as="targetPoint" />
            <mxPoint as="offset" />
          </mxGeometry>
        </mxCell>
        <mxCell id="XzoOXswsR-Y3jGsb5p3l-308" value="Display search results" style="html=1;verticalAlign=bottom;endArrow=block;labelBackgroundColor=none;fontFamily=Verdana;fontSize=12;edgeStyle=elbowEdgeStyle;elbow=vertical;entryX=0.857;entryY=0.475;entryDx=0;entryDy=0;entryPerimeter=0;" edge="1" parent="1">
          <mxGeometry y="-2" relative="1" as="geometry">
            <mxPoint x="845" y="1350" as="sourcePoint" />
            <mxPoint x="523" y="1351" as="targetPoint" />
            <mxPoint as="offset" />
          </mxGeometry>
        </mxCell>
        <mxCell id="XzoOXswsR-Y3jGsb5p3l-309" value="alt" style="shape=umlFrame;whiteSpace=wrap;html=1;pointerEvents=0;" vertex="1" parent="1">
          <mxGeometry x="390" y="1390" width="530" height="60" as="geometry" />
        </mxCell>
        <mxCell id="XzoOXswsR-Y3jGsb5p3l-310" value="&lt;span style=&quot;font-size: 10px;&quot;&gt;No search results&lt;/span&gt;" style="text;html=1;align=center;verticalAlign=middle;resizable=0;points=[];autosize=1;strokeColor=none;fillColor=none;fontSize=16;" vertex="1" parent="1">
          <mxGeometry x="450" y="1390" width="100" height="30" as="geometry" />
        </mxCell>
        <mxCell id="XzoOXswsR-Y3jGsb5p3l-311" value="Display &quot;Data not found&quot;" style="html=1;verticalAlign=bottom;endArrow=block;labelBackgroundColor=none;fontFamily=Verdana;fontSize=12;edgeStyle=elbowEdgeStyle;elbow=horizontal;exitX=0.98;exitY=0.741;exitDx=0;exitDy=0;exitPerimeter=0;" edge="1" parent="1">
          <mxGeometry x="0.0031" relative="1" as="geometry">
            <mxPoint x="519.9999999999998" y="1433" as="sourcePoint" />
            <mxPoint x="850" y="1433" as="targetPoint" />
            <mxPoint as="offset" />
            <Array as="points">
              <mxPoint x="762.8" y="1405.31" />
            </Array>
          </mxGeometry>
        </mxCell>
        <mxCell id="XzoOXswsR-Y3jGsb5p3l-313" value="Views quotes" style="html=1;verticalAlign=bottom;endArrow=block;labelBackgroundColor=none;fontFamily=Verdana;fontSize=12;edgeStyle=elbowEdgeStyle;elbow=horizontal;" edge="1" parent="1">
          <mxGeometry x="0.0031" relative="1" as="geometry">
            <mxPoint x="160" y="1520" as="sourcePoint" />
            <mxPoint x="530" y="1520" as="targetPoint" />
            <mxPoint as="offset" />
            <Array as="points" />
          </mxGeometry>
        </mxCell>
      </root>
    </mxGraphModel>
  </diagram>
</mxfile>
